<svg version="1.1" xmlns="http://www.w3.org/2000/svg" xmlns:xlink="http://www.w3.org/1999/xlink" width="300" height="300" style="width: 300px; height: 300px;"><defs/><g><g/><g transform="scale(1,1) translate(0.5,0.5)"><rect fill="#FFFFFF" stroke="none" x="0" y="0" width="300" height="300"/><rect fill="#ffffff" stroke="none" x="0" y="0" width="300" height="300"/><rect fill="#FFFFFF" stroke="none" x="40.64" y="29.19999999999999" width="254.36" height="227.44"/><rect fill="#ffffff" stroke="none" x="40.64" y="29.19999999999999" width="254.36" height="227.44"/><g><rect fill="none" stroke="#e5e5e5" x="40.64" y="29.19999999999999" width="254.36" height="227.44" stroke-miterlimit="10"/></g><g><g><rect fill="#d3d3d3" stroke="none" x="69.98923076923077" y="256.64" width="17.78741258741259" height="-227.44" fill-opacity="0.1"/><rect fill="#d3d3d3" stroke="none" x="105.56405594405595" y="256.64" width="17.787412587412575" height="-227.44" fill-opacity="0.1"/><rect fill="#d3d3d3" stroke="none" x="141.1388811188811" y="256.64" width="17.787412587412604" height="-227.44" fill-opacity="0.1"/><rect fill="#d3d3d3" stroke="none" x="176.7137062937063" y="256.64" width="17.787412587412575" height="-227.44" fill-opacity="0.1"/><rect fill="#d3d3d3" stroke="none" x="212.28853146853146" y="256.64" width="17.787412587412604" height="-227.44" fill-opacity="0.1"/><rect fill="#d3d3d3" stroke="none" x="247.86335664335664" y="256.64" width="17.787412587412604" height="-227.44" fill-opacity="0.1"/><path fill="none" stroke="#e5e5e5" paint-order="fill stroke markers" d=" M 52 257 L 52 29" stroke-miterlimit="10"/><path fill="none" stroke="#e5e5e5" paint-order="fill stroke markers" d=" M 70 257 L 70 29" stroke-miterlimit="10"/><path fill="none" stroke="#e5e5e5" paint-order="fill stroke markers" d=" M 88 257 L 88 29" stroke-miterlimit="10"/><path fill="none" stroke="#e5e5e5" paint-order="fill stroke markers" d=" M 106 257 L 106 29" stroke-miterlimit="10"/><path fill="none" stroke="#e5e5e5" paint-order="fill stroke markers" d=" M 123 257 L 123 29" stroke-miterlimit="10"/><path fill="none" stroke="#e5e5e5" paint-order="fill stroke markers" d=" M 141 257 L 141 29" stroke-miterlimit="10"/><path fill="none" stroke="#e5e5e5" paint-order="fill stroke markers" d=" M 159 257 L 159 29" stroke-miterlimit="10"/><path fill="none" stroke="#e5e5e5" paint-order="fill stroke markers" d=" M 177 257 L 177 29" stroke-miterlimit="10"/><path fill="none" stroke="#e5e5e5" paint-order="fill stroke markers" d=" M 195 257 L 195 29" stroke-miterlimit="10"/><path fill="none" stroke="#e5e5e5" paint-order="fill stroke markers" d=" M 212 257 L 212 29" stroke-miterlimit="10"/><path fill="none" stroke="#e5e5e5" paint-order="fill stroke markers" d=" M 230 257 L 230 29" stroke-miterlimit="10"/><path fill="none" stroke="#e5e5e5" paint-order="fill stroke markers" d=" M 248 257 L 248 29" stroke-miterlimit="10"/><path fill="none" stroke="#e5e5e5" paint-order="fill stroke markers" d=" M 266 257 L 266 29" stroke-miterlimit="10"/><path fill="none" stroke="#e5e5e5" paint-order="fill stroke markers" d=" M 283 257 L 283 29" stroke-miterlimit="10"/></g><g><rect fill="#d3d3d3" stroke="none" x="40.64" y="220.45636363636362" width="254.36" height="-25.845454545454544" fill-opacity="0.1"/><rect fill="#d3d3d3" stroke="none" x="40.64" y="168.76545454545453" width="254.36" height="-25.845454545454544" fill-opacity="0.1"/><rect fill="#d3d3d3" stroke="none" x="40.64" y="117.07454545454544" width="254.36" height="-25.845454545454515" fill-opacity="0.1"/><rect fill="#d3d3d3" stroke="none" x="40.64" y="65.38363636363636" width="254.36" height="-25.845454545454515" fill-opacity="0.1"/><path fill="none" stroke="#e5e5e5" paint-order="fill stroke markers" d=" M 41 246 L 295 246" stroke-miterlimit="10"/><path fill="none" stroke="#e5e5e5" paint-order="fill stroke markers" d=" M 41 220 L 295 220" stroke-miterlimit="10"/><path fill="none" stroke="#e5e5e5" paint-order="fill stroke markers" d=" M 41 195 L 295 195" stroke-miterlimit="10"/><path fill="none" stroke="#e5e5e5" paint-order="fill stroke markers" d=" M 41 169 L 295 169" stroke-miterlimit="10"/><path fill="none" stroke="#e5e5e5" paint-order="fill stroke markers" d=" M 41 143 L 295 143" stroke-miterlimit="10"/><path fill="none" stroke="#e5e5e5" paint-order="fill stroke markers" d=" M 41 117 L 295 117" stroke-miterlimit="10"/><path fill="none" stroke="#e5e5e5" paint-order="fill stroke markers" d=" M 41 91 L 295 91" stroke-miterlimit="10"/><path fill="none" stroke="#e5e5e5" paint-order="fill stroke markers" d=" M 41 65 L 295 65" stroke-miterlimit="10"/><path fill="none" stroke="#e5e5e5" paint-order="fill stroke markers" d=" M 41 40 L 295 40" stroke-miterlimit="10"/></g><g><path fill="none" stroke="none"/><path fill="none" stroke="black" paint-order="fill stroke markers" d=" M 123.35146853146853 246.30181818181816 L 158.9262937062937 194.61090909090908" stroke-miterlimit="10" stroke-width="5"/><path fill="none" stroke="black" paint-order="fill stroke markers" d=" M 158.9262937062937 142.92 L 176.7137062937063 117.07454545454544" stroke-miterlimit="10" stroke-width="5"/><path fill="none" stroke="black" paint-order="fill stroke markers" d=" M 194.50111888111888 91.22909090909093 L 230.07594405594406 39.53818181818184" stroke-miterlimit="10" stroke-width="5"/></g><g><path fill="none" stroke="none"/><path fill="none" stroke="#acacac" paint-order="fill stroke markers" d=" M 176.7137062937063 117.07454545454544 L 194.50111888111888 91.22909090909093" stroke-miterlimit="10" stroke-width="5"/></g><g><path fill="none" stroke="none"/><path fill="none" stroke="black" paint-order="fill stroke markers" d=" M 158.9262937062937 194.61090909090908 L 158.9262937062937 142.92" stroke-miterlimit="10" stroke-width="2" stroke-dasharray="2,2"/></g><g><path fill="none" stroke="none"/><path fill="none" stroke="black" paint-order="fill stroke markers" d=" M 52.20181818181819 246.30181818181816 L 123.35146853146853 246.30181818181816" stroke-miterlimit="10" stroke-width="2" stroke-dasharray="5,5"/><path fill="none" stroke="black" paint-order="fill stroke markers" d=" M 230.07594405594406 39.53818181818184 L 283.4381818181818 39.53818181818184" stroke-miterlimit="10" stroke-width="2" stroke-dasharray="5,5"/></g></g><g><g/><g><path fill="#ffffff" stroke="#e5e5e5" paint-order="fill stroke markers" d=" M 176 137.64 L 285 137.64 L 285 246.64 L 176 246.64 L 176 137.64 Z" fill-opacity="0.95" stroke-miterlimit="10" stroke-opacity="0.5"/><text fill="#444444" stroke="none" font-family="helvetica" font-size="10pt" font-style="normal" font-weight="normal" text-decoration="normal" x="211" y="157.64" text-anchor="start" dominant-baseline="central">match</text><g><path fill="none" stroke="black" paint-order="fill stroke markers" d=" M 186 157.64 L 206 157.64" stroke-miterlimit="10" stroke-width="5"/></g><text fill="#444444" stroke="none" font-family="helvetica" font-size="10pt" font-style="normal" font-weight="normal" text-decoration="normal" x="211" y="180.64" text-anchor="start" dominant-baseline="central">missmatch</text><g><path fill="none" stroke="#acacac" paint-order="fill stroke markers" d=" M 186 180.64 L 206 180.64" stroke-miterlimit="10" stroke-width="5"/></g><text fill="#444444" stroke="none" font-family="helvetica" font-size="10pt" font-style="normal" font-weight="normal" text-decoration="normal" x="211" y="203.64" text-anchor="start" dominant-baseline="central">insertion</text><g><path fill="none" stroke="black" paint-order="fill stroke markers" d=" M 186 203.64 L 206 203.64" stroke-miterlimit="10" stroke-width="2" stroke-dasharray="2,2"/></g><text fill="#444444" stroke="none" font-family="helvetica" font-size="10pt" font-style="normal" font-weight="normal" text-decoration="normal" x="211" y="226.64" text-anchor="start" dominant-baseline="central">deletion</text><g><path fill="none" stroke="black" paint-order="fill stroke markers" d=" M 186 226.64 L 206 226.64" stroke-miterlimit="10" stroke-width="2" stroke-dasharray="5,5"/></g></g></g><g><g fill="#444444"><path fill="none" stroke="black" paint-order="fill stroke markers" d=" M 41 257 L 295 257" stroke-miterlimit="10"/><path fill="none" stroke="black" paint-order="fill stroke markers" d=" M 61 263 L 61 255" stroke-miterlimit="10"/><path fill="none" stroke="black" paint-order="fill stroke markers" d=" M 79 263 L 79 255" stroke-miterlimit="10"/><path fill="none" stroke="black" paint-order="fill stroke markers" d=" M 97 263 L 97 255" stroke-miterlimit="10"/><path fill="none" stroke="black" paint-order="fill stroke markers" d=" M 114 263 L 114 255" stroke-miterlimit="10"/><path fill="none" stroke="black" paint-order="fill stroke markers" d=" M 132 263 L 132 255" stroke-miterlimit="10"/><path fill="none" stroke="black" paint-order="fill stroke markers" d=" M 150 263 L 150 255" stroke-miterlimit="10"/><path fill="none" stroke="black" paint-order="fill stroke markers" d=" M 168 263 L 168 255" stroke-miterlimit="10"/><path fill="none" stroke="black" paint-order="fill stroke markers" d=" M 186 263 L 186 255" stroke-miterlimit="10"/><path fill="none" stroke="black" paint-order="fill stroke markers" d=" M 203 263 L 203 255" stroke-miterlimit="10"/><path fill="none" stroke="black" paint-order="fill stroke markers" d=" M 221 263 L 221 255" stroke-miterlimit="10"/><path fill="none" stroke="black" paint-order="fill stroke markers" d=" M 239 263 L 239 255" stroke-miterlimit="10"/><path fill="none" stroke="black" paint-order="fill stroke markers" d=" M 257 263 L 257 255" stroke-miterlimit="10"/><path fill="" stroke="black" paint-order="fill stroke markers" d=" M 275 263 L 275 255" stroke-miterlimit="10"/><g transform="translate(61,268) rotate(0,0,0)"><text fill="" stroke="none" font-family="helvetica" font-size="8pt" font-style="normal" font-weight="normal" text-decoration="normal" x="0" y="0" text-anchor="middle" dominant-baseline="hanging">A</text><g transform="rotate(0,0,0) translate(-61,-268) translate(79,268) rotate(0,0,0)"><text fill="" stroke="none" font-family="helvetica" font-size="8pt" font-style="normal" font-weight="normal" text-decoration="normal" x="0" y="0" text-anchor="middle" dominant-baseline="hanging">C</text><g transform="rotate(0,0,0) translate(-79,-268) translate(97,268) rotate(0,0,0)"><text fill="" stroke="none" font-family="helvetica" font-size="8pt" font-style="normal" font-weight="normal" text-decoration="normal" x="0" y="0" text-anchor="middle" dominant-baseline="hanging">A</text><g transform="rotate(0,0,0) translate(-97,-268) translate(114,268) rotate(0,0,0)"><text fill="" stroke="none" font-family="helvetica" font-size="8pt" font-style="normal" font-weight="normal" text-decoration="normal" x="0" y="0" text-anchor="middle" dominant-baseline="hanging">G</text><g transform="rotate(0,0,0) translate(-114,-268) translate(132,268) rotate(0,0,0)"><text fill="" stroke="none" font-family="helvetica" font-size="8pt" font-style="normal" font-weight="normal" text-decoration="normal" x="0" y="0" text-anchor="middle" dominant-baseline="hanging">C</text><g transform="rotate(0,0,0) translate(-132,-268) translate(150,268) rotate(0,0,0)"><text fill="" stroke="none" font-family="helvetica" font-size="8pt" font-style="normal" font-weight="normal" text-decoration="normal" x="0" y="0" text-anchor="middle" dominant-baseline="hanging">A</text><g transform="rotate(0,0,0) translate(-150,-268) translate(168,268) rotate(0,0,0)"><text fill="" stroke="none" font-family="helvetica" font-size="8pt" font-style="normal" font-weight="normal" text-decoration="normal" x="0" y="0" text-anchor="middle" dominant-baseline="hanging">T</text><g transform="rotate(0,0,0) translate(-168,-268) translate(186,268) rotate(0,0,0)"><text fill="" stroke="none" font-family="helvetica" font-size="8pt" font-style="normal" font-weight="normal" text-decoration="normal" x="0" y="0" text-anchor="middle" dominant-baseline="hanging">T</text><g transform="rotate(0,0,0) translate(-186,-268) translate(203,268) rotate(0,0,0)"><text fill="" stroke="none" font-family="helvetica" font-size="8pt" font-style="normal" font-weight="normal" text-decoration="normal" x="0" y="0" text-anchor="middle" dominant-baseline="hanging">T</text><g transform="rotate(0,0,0) translate(-203,-268) translate(221,268) rotate(0,0,0)"><text fill="" stroke="none" font-family="helvetica" font-size="8pt" font-style="normal" font-weight="normal" text-decoration="normal" x="0" y="0" text-anchor="middle" dominant-baseline="hanging">T</text><g transform="rotate(0,0,0) translate(-221,-268) translate(239,268) rotate(0,0,0)"><text fill="" stroke="none" font-family="helvetica" font-size="8pt" font-style="normal" font-weight="normal" text-decoration="normal" x="0" y="0" text-anchor="middle" dominant-baseline="hanging">G</text><g transform="rotate(0,0,0) translate(-239,-268) translate(257,268) rotate(0,0,0)"><text fill="" stroke="none" font-family="helvetica" font-size="8pt" font-style="normal" font-weight="normal" text-decoration="normal" x="0" y="0" text-anchor="middle" dominant-baseline="hanging">G</text><g transform="rotate(0,0,0) translate(-257,-268) translate(275,268) rotate(0,0,0)"><text fill="" stroke="none" font-family="helvetica" font-size="8pt" font-style="normal" font-weight="normal" text-decoration="normal" x="0" y="0" text-anchor="middle" dominant-baseline="hanging">A</text><g transform="rotate(0,0,0) translate(-275,-268) translate(168,284) rotate(0,0,0)"><text fill="" stroke="none" font-family="helvetica" font-size="10pt" font-style="italic" font-weight="normal" text-decoration="normal" x="0" y="0" text-anchor="middle" dominant-baseline="hanging">reference</text><g transform="rotate(0,0,0) translate(-168,-284)"/></g></g></g></g></g></g></g></g></g></g></g></g></g></g></g><g fill="#444444"><path fill="none" stroke="black" paint-order="fill stroke markers" d=" M 41 257 L 41 29" stroke-miterlimit="10"/><path fill="none" stroke="black" paint-order="fill stroke markers" d=" M 35 233 L 43 233" stroke-miterlimit="10"/><path fill="none" stroke="black" paint-order="fill stroke markers" d=" M 35 208 L 43 208" stroke-miterlimit="10"/><path fill="none" stroke="black" paint-order="fill stroke markers" d=" M 35 182 L 43 182" stroke-miterlimit="10"/><path fill="none" stroke="black" paint-order="fill stroke markers" d=" M 35 156 L 43 156" stroke-miterlimit="10"/><path fill="none" stroke="black" paint-order="fill stroke markers" d=" M 35 130 L 43 130" stroke-miterlimit="10"/><path fill="none" stroke="black" paint-order="fill stroke markers" d=" M 35 104 L 43 104" stroke-miterlimit="10"/><path fill="none" stroke="black" paint-order="fill stroke markers" d=" M 35 78 L 43 78" stroke-miterlimit="10"/><path fill="" stroke="black" paint-order="fill stroke markers" d=" M 35 52 L 43 52" stroke-miterlimit="10"/><g transform="translate(30,233) rotate(0,0,0)"><text fill="" stroke="none" font-family="helvetica" font-size="8pt" font-style="normal" font-weight="normal" text-decoration="normal" x="0" y="0" text-anchor="end" dominant-baseline="central">C</text><g transform="rotate(0,0,0) translate(-30,-233) translate(30,208) rotate(0,0,0)"><text fill="" stroke="none" font-family="helvetica" font-size="8pt" font-style="normal" font-weight="normal" text-decoration="normal" x="0" y="0" text-anchor="end" dominant-baseline="central">A</text><g transform="rotate(0,0,0) translate(-30,-208) translate(30,182) rotate(0,0,0)"><text fill="" stroke="none" font-family="helvetica" font-size="8pt" font-style="normal" font-weight="normal" text-decoration="normal" x="0" y="0" text-anchor="end" dominant-baseline="central">C</text><g transform="rotate(0,0,0) translate(-30,-182) translate(30,156) rotate(0,0,0)"><text fill="" stroke="none" font-family="helvetica" font-size="8pt" font-style="normal" font-weight="normal" text-decoration="normal" x="0" y="0" text-anchor="end" dominant-baseline="central">A</text><g transform="rotate(0,0,0) translate(-30,-156) translate(30,130) rotate(0,0,0)"><text fill="" stroke="none" font-family="helvetica" font-size="8pt" font-style="normal" font-weight="normal" text-decoration="normal" x="0" y="0" text-anchor="end" dominant-baseline="central">T</text><g transform="rotate(0,0,0) translate(-30,-130) translate(30,104) rotate(0,0,0)"><text fill="" stroke="none" font-family="helvetica" font-size="8pt" font-style="normal" font-weight="normal" text-decoration="normal" x="0" y="0" text-anchor="end" dominant-baseline="central">A</text><g transform="rotate(0,0,0) translate(-30,-104) translate(30,78) rotate(0,0,0)"><text fill="" stroke="none" font-family="helvetica" font-size="8pt" font-style="normal" font-weight="normal" text-decoration="normal" x="0" y="0" text-anchor="end" dominant-baseline="central">T</text><g transform="rotate(0,0,0) translate(-30,-78) translate(30,52) rotate(0,0,0)"><text fill="" stroke="none" font-family="helvetica" font-size="8pt" font-style="normal" font-weight="normal" text-decoration="normal" x="0" y="0" text-anchor="end" dominant-baseline="central">T</text><g transform="rotate(0,0,0) translate(-30,-52) translate(16,143) rotate(-90,0,0)"><text fill="" stroke="none" font-family="helvetica" font-size="10pt" font-style="italic" font-weight="normal" text-decoration="normal" x="0" y="0" text-anchor="middle" dominant-baseline="alphabetic">query</text><g transform="rotate(90,0,0) translate(-16,-143)"/></g></g></g></g></g></g></g></g></g></g><g fill="#444444"><path fill="" stroke="none" d=""/><g transform="translate(40.64,10)"><path fill="none" stroke="none"/><text fill="" stroke="none" font-family="helvetica" font-size="10pt" font-style="normal" font-weight="bold" text-decoration="normal" x="0" y="0" text-anchor="start" dominant-baseline="text-before-edge">Figure 1</text></g></g></g></g></g></svg>