<svg version="1.1" xmlns="http://www.w3.org/2000/svg" xmlns:xlink="http://www.w3.org/1999/xlink" width="300" height="300" style="width: 300px; height: 300px;"><defs/><g><g/><g transform="scale(1,1) translate(0.5,0.5)"><rect fill="#FFFFFF" stroke="none" x="0" y="0" width="300" height="300"/><rect fill="#ffffff" stroke="none" x="0" y="0" width="300" height="300"/><rect fill="#FFFFFF" stroke="none" x="37.760000000000005" y="26" width="257.24" height="232.07999999999998"/><rect fill="#ffffff" stroke="none" x="37.760000000000005" y="26" width="257.24" height="232.07999999999998"/><g><rect fill="none" stroke="#e5e5e5" x="37.760000000000005" y="26" width="257.24" height="232.07999999999998" stroke-miterlimit="10"/></g><g><g><rect fill="#d3d3d3" stroke="none" x="67.44153846153847" y="258.08" width="17.988811188811184" height="-232.07999999999998" fill-opacity="0.2"/><rect fill="#d3d3d3" stroke="none" x="103.41916083916084" y="258.08" width="17.988811188811198" height="-232.07999999999998" fill-opacity="0.2"/><rect fill="#d3d3d3" stroke="none" x="139.3967832167832" y="258.08" width="17.988811188811212" height="-232.07999999999998" fill-opacity="0.2"/><rect fill="#d3d3d3" stroke="none" x="175.3744055944056" y="258.08" width="17.988811188811184" height="-232.07999999999998" fill-opacity="0.2"/><rect fill="#d3d3d3" stroke="none" x="211.352027972028" y="258.08" width="17.988811188811155" height="-232.07999999999998" fill-opacity="0.2"/><rect fill="#d3d3d3" stroke="none" x="247.32965034965036" y="258.08" width="17.988811188811155" height="-232.07999999999998" fill-opacity="0.2"/><path fill="none" stroke="#acacac" paint-order="fill stroke markers" d=" M 49 258 L 49 26" stroke-miterlimit="10"/><path fill="none" stroke="#acacac" paint-order="fill stroke markers" d=" M 67 258 L 67 26" stroke-miterlimit="10"/><path fill="none" stroke="#acacac" paint-order="fill stroke markers" d=" M 85 258 L 85 26" stroke-miterlimit="10"/><path fill="none" stroke="#acacac" paint-order="fill stroke markers" d=" M 103 258 L 103 26" stroke-miterlimit="10"/><path fill="none" stroke="#acacac" paint-order="fill stroke markers" d=" M 121 258 L 121 26" stroke-miterlimit="10"/><path fill="none" stroke="#acacac" paint-order="fill stroke markers" d=" M 139 258 L 139 26" stroke-miterlimit="10"/><path fill="none" stroke="#acacac" paint-order="fill stroke markers" d=" M 157 258 L 157 26" stroke-miterlimit="10"/><path fill="none" stroke="#acacac" paint-order="fill stroke markers" d=" M 175 258 L 175 26" stroke-miterlimit="10"/><path fill="none" stroke="#acacac" paint-order="fill stroke markers" d=" M 193 258 L 193 26" stroke-miterlimit="10"/><path fill="none" stroke="#acacac" paint-order="fill stroke markers" d=" M 211 258 L 211 26" stroke-miterlimit="10"/><path fill="none" stroke="#acacac" paint-order="fill stroke markers" d=" M 229 258 L 229 26" stroke-miterlimit="10"/><path fill="none" stroke="#acacac" paint-order="fill stroke markers" d=" M 247 258 L 247 26" stroke-miterlimit="10"/><path fill="none" stroke="#acacac" paint-order="fill stroke markers" d=" M 265 258 L 265 26" stroke-miterlimit="10"/><path fill="none" stroke="#acacac" paint-order="fill stroke markers" d=" M 283 258 L 283 26" stroke-miterlimit="10"/></g><g><rect fill="#d3d3d3" stroke="none" x="37.760000000000005" y="221.15818181818182" width="257.24" height="-26.372727272727246" fill-opacity="0.2"/><rect fill="#d3d3d3" stroke="none" x="37.760000000000005" y="168.4127272727273" width="257.24" height="-26.372727272727275" fill-opacity="0.2"/><rect fill="#d3d3d3" stroke="none" x="37.760000000000005" y="115.66727272727275" width="257.24" height="-26.372727272727275" fill-opacity="0.2"/><rect fill="#d3d3d3" stroke="none" x="37.760000000000005" y="62.921818181818225" width="257.24" height="-26.372727272727246" fill-opacity="0.2"/><path fill="none" stroke="#acacac" paint-order="fill stroke markers" d=" M 38 248 L 295 248" stroke-miterlimit="10"/><path fill="none" stroke="#acacac" paint-order="fill stroke markers" d=" M 38 221 L 295 221" stroke-miterlimit="10"/><path fill="none" stroke="#acacac" paint-order="fill stroke markers" d=" M 38 195 L 295 195" stroke-miterlimit="10"/><path fill="none" stroke="#acacac" paint-order="fill stroke markers" d=" M 38 168 L 295 168" stroke-miterlimit="10"/><path fill="none" stroke="#acacac" paint-order="fill stroke markers" d=" M 38 142 L 295 142" stroke-miterlimit="10"/><path fill="none" stroke="#acacac" paint-order="fill stroke markers" d=" M 38 116 L 295 116" stroke-miterlimit="10"/><path fill="none" stroke="#acacac" paint-order="fill stroke markers" d=" M 38 89 L 295 89" stroke-miterlimit="10"/><path fill="none" stroke="#acacac" paint-order="fill stroke markers" d=" M 38 63 L 295 63" stroke-miterlimit="10"/><path fill="none" stroke="#acacac" paint-order="fill stroke markers" d=" M 38 37 L 295 37" stroke-miterlimit="10"/></g><g><path fill="none" stroke="none"/><path fill="none" stroke="black" paint-order="fill stroke markers" d=" M 139.3967832167832 247.5309090909091 L 175.3744055944056 194.78545454545457" stroke-miterlimit="10" stroke-width="5"/><path fill="none" stroke="black" paint-order="fill stroke markers" d=" M 175.3744055944056 142.04000000000002 L 193.36321678321679 115.66727272727275" stroke-miterlimit="10" stroke-width="5"/><path fill="none" stroke="black" paint-order="fill stroke markers" d=" M 211.352027972028 89.29454545454547 L 247.32965034965036 36.54909090909098" stroke-miterlimit="10" stroke-width="5"/></g><g><path fill="none" stroke="none"/><path fill="none" stroke="#acacac" paint-order="fill stroke markers" d=" M 193.36321678321679 115.66727272727275 L 211.352027972028 89.29454545454547" stroke-miterlimit="10" stroke-width="5"/></g><g><path fill="none" stroke="none"/><path fill="none" stroke="black" paint-order="fill stroke markers" d=" M 175.3744055944056 194.78545454545457 L 175.3744055944056 142.04000000000002" stroke-miterlimit="10" stroke-width="2" stroke-dasharray="2,2"/></g><g><path fill="none" stroke="none"/><path fill="none" stroke="black" paint-order="fill stroke markers" d=" M 49.45272727272729 247.5309090909091 L 139.3967832167832 247.5309090909091" stroke-miterlimit="10" stroke-width="2" stroke-dasharray="5,5"/><path fill="none" stroke="black" paint-order="fill stroke markers" d=" M 247.32965034965036 36.54909090909098 L 283.30727272727273 36.54909090909098" stroke-miterlimit="10" stroke-width="2" stroke-dasharray="5,5"/></g></g><g><g/><g><path fill="#ffffff" stroke="#e5e5e5" paint-order="fill stroke markers" d=" M 47.760000000000005 36 L 148.76 36 L 148.76 145 L 47.760000000000005 145 L 47.760000000000005 36 Z" fill-opacity="0.95" stroke-miterlimit="10" stroke-opacity="0.5"/><text fill="#444444" stroke="none" font-family="Times New Roman" font-size="10pt" font-style="normal" font-weight="normal" text-decoration="normal" x="82.76" y="56" text-anchor="start" dominant-baseline="text-after-edge">match</text><g><path fill="none" stroke="black" paint-order="fill stroke markers" d=" M 57.760000000000005 56 L 77.76 56" stroke-miterlimit="10" stroke-width="5"/></g><text fill="#444444" stroke="none" font-family="Times New Roman" font-size="10pt" font-style="normal" font-weight="normal" text-decoration="normal" x="82.76" y="79" text-anchor="start" dominant-baseline="text-after-edge">missmatch</text><g><path fill="none" stroke="#acacac" paint-order="fill stroke markers" d=" M 57.760000000000005 79 L 77.76 79" stroke-miterlimit="10" stroke-width="5"/></g><text fill="#444444" stroke="none" font-family="Times New Roman" font-size="10pt" font-style="normal" font-weight="normal" text-decoration="normal" x="82.76" y="102" text-anchor="start" dominant-baseline="text-after-edge">insertion</text><g><path fill="none" stroke="black" paint-order="fill stroke markers" d=" M 57.760000000000005 102 L 77.76 102" stroke-miterlimit="10" stroke-width="2" stroke-dasharray="2,2"/></g><text fill="#444444" stroke="none" font-family="Times New Roman" font-size="10pt" font-style="normal" font-weight="normal" text-decoration="normal" x="82.76" y="125" text-anchor="start" dominant-baseline="text-after-edge">deletion</text><g><path fill="none" stroke="black" paint-order="fill stroke markers" d=" M 57.760000000000005 125 L 77.76 125" stroke-miterlimit="10" stroke-width="2" stroke-dasharray="5,5"/></g></g></g><g><g fill="#444444"><path fill="" stroke="black" paint-order="fill stroke markers" d=" M 38 258 L 295 258" stroke-miterlimit="10"/><g transform="translate(58,269) rotate(0,0,0)"><text fill="" stroke="none" font-family="Times New Roman" font-size="8pt" font-style="normal" font-weight="normal" text-decoration="normal" x="0" y="0" text-anchor="middle" dominant-baseline="hanging">A</text><g transform="rotate(0,0,0) translate(-58,-269) translate(76,269) rotate(0,0,0)"><text fill="" stroke="none" font-family="Times New Roman" font-size="8pt" font-style="normal" font-weight="normal" text-decoration="normal" x="0" y="0" text-anchor="middle" dominant-baseline="hanging">G</text><g transform="rotate(0,0,0) translate(-76,-269) translate(94,269) rotate(0,0,0)"><text fill="" stroke="none" font-family="Times New Roman" font-size="8pt" font-style="normal" font-weight="normal" text-decoration="normal" x="0" y="0" text-anchor="middle" dominant-baseline="hanging">G</text><g transform="rotate(0,0,0) translate(-94,-269) translate(112,269) rotate(0,0,0)"><text fill="" stroke="none" font-family="Times New Roman" font-size="8pt" font-style="normal" font-weight="normal" text-decoration="normal" x="0" y="0" text-anchor="middle" dominant-baseline="hanging">A</text><g transform="rotate(0,0,0) translate(-112,-269) translate(130,269) rotate(0,0,0)"><text fill="" stroke="none" font-family="Times New Roman" font-size="8pt" font-style="normal" font-weight="normal" text-decoration="normal" x="0" y="0" text-anchor="middle" dominant-baseline="hanging">G</text><g transform="rotate(0,0,0) translate(-130,-269) translate(148,269) rotate(0,0,0)"><text fill="" stroke="none" font-family="Times New Roman" font-size="8pt" font-style="normal" font-weight="normal" text-decoration="normal" x="0" y="0" text-anchor="middle" dominant-baseline="hanging">C</text><g transform="rotate(0,0,0) translate(-148,-269) translate(166,269) rotate(0,0,0)"><text fill="" stroke="none" font-family="Times New Roman" font-size="8pt" font-style="normal" font-weight="normal" text-decoration="normal" x="0" y="0" text-anchor="middle" dominant-baseline="hanging">A</text><g transform="rotate(0,0,0) translate(-166,-269) translate(184,269) rotate(0,0,0)"><text fill="" stroke="none" font-family="Times New Roman" font-size="8pt" font-style="normal" font-weight="normal" text-decoration="normal" x="0" y="0" text-anchor="middle" dominant-baseline="hanging">T</text><g transform="rotate(0,0,0) translate(-184,-269) translate(202,269) rotate(0,0,0)"><text fill="" stroke="none" font-family="Times New Roman" font-size="8pt" font-style="normal" font-weight="normal" text-decoration="normal" x="0" y="0" text-anchor="middle" dominant-baseline="hanging">T</text><g transform="rotate(0,0,0) translate(-202,-269) translate(220,269) rotate(0,0,0)"><text fill="" stroke="none" font-family="Times New Roman" font-size="8pt" font-style="normal" font-weight="normal" text-decoration="normal" x="0" y="0" text-anchor="middle" dominant-baseline="hanging">T</text><g transform="rotate(0,0,0) translate(-220,-269) translate(238,269) rotate(0,0,0)"><text fill="" stroke="none" font-family="Times New Roman" font-size="8pt" font-style="normal" font-weight="normal" text-decoration="normal" x="0" y="0" text-anchor="middle" dominant-baseline="hanging">T</text><g transform="rotate(0,0,0) translate(-238,-269) translate(256,269) rotate(0,0,0)"><text fill="" stroke="none" font-family="Times New Roman" font-size="8pt" font-style="normal" font-weight="normal" text-decoration="normal" x="0" y="0" text-anchor="middle" dominant-baseline="hanging">C</text><g transform="rotate(0,0,0) translate(-256,-269) translate(274,269) rotate(0,0,0)"><text fill="" stroke="none" font-family="Times New Roman" font-size="8pt" font-style="normal" font-weight="normal" text-decoration="normal" x="0" y="0" text-anchor="middle" dominant-baseline="hanging">A</text><g transform="rotate(0,0,0) translate(-274,-269) translate(166,287) rotate(0,0,0)"><text fill="" stroke="none" font-family="Times New Roman" font-size="10pt" font-style="italic" font-weight="normal" text-decoration="normal" x="0" y="0" text-anchor="middle" dominant-baseline="hanging">reference</text><g transform="rotate(0,0,0) translate(-166,-287)"/></g></g></g></g></g></g></g></g></g></g></g></g></g></g></g><g fill="#444444"><path fill="" stroke="black" paint-order="fill stroke markers" d=" M 38 258 L 38 26" stroke-miterlimit="10"/><g transform="translate(27,234) rotate(0,0,0)"><text fill="" stroke="none" font-family="Times New Roman" font-size="8pt" font-style="normal" font-weight="normal" text-decoration="normal" x="0" y="0" text-anchor="end" dominant-baseline="central">C</text><g transform="rotate(0,0,0) translate(-27,-234) translate(27,208) rotate(0,0,0)"><text fill="" stroke="none" font-family="Times New Roman" font-size="8pt" font-style="normal" font-weight="normal" text-decoration="normal" x="0" y="0" text-anchor="end" dominant-baseline="central">A</text><g transform="rotate(0,0,0) translate(-27,-208) translate(27,182) rotate(0,0,0)"><text fill="" stroke="none" font-family="Times New Roman" font-size="8pt" font-style="normal" font-weight="normal" text-decoration="normal" x="0" y="0" text-anchor="end" dominant-baseline="central">C</text><g transform="rotate(0,0,0) translate(-27,-182) translate(27,155) rotate(0,0,0)"><text fill="" stroke="none" font-family="Times New Roman" font-size="8pt" font-style="normal" font-weight="normal" text-decoration="normal" x="0" y="0" text-anchor="end" dominant-baseline="central">A</text><g transform="rotate(0,0,0) translate(-27,-155) translate(27,129) rotate(0,0,0)"><text fill="" stroke="none" font-family="Times New Roman" font-size="8pt" font-style="normal" font-weight="normal" text-decoration="normal" x="0" y="0" text-anchor="end" dominant-baseline="central">T</text><g transform="rotate(0,0,0) translate(-27,-129) translate(27,102) rotate(0,0,0)"><text fill="" stroke="none" font-family="Times New Roman" font-size="8pt" font-style="normal" font-weight="normal" text-decoration="normal" x="0" y="0" text-anchor="end" dominant-baseline="central">A</text><g transform="rotate(0,0,0) translate(-27,-102) translate(27,76) rotate(0,0,0)"><text fill="" stroke="none" font-family="Times New Roman" font-size="8pt" font-style="normal" font-weight="normal" text-decoration="normal" x="0" y="0" text-anchor="end" dominant-baseline="central">T</text><g transform="rotate(0,0,0) translate(-27,-76) translate(27,50) rotate(0,0,0)"><text fill="" stroke="none" font-family="Times New Roman" font-size="8pt" font-style="normal" font-weight="normal" text-decoration="normal" x="0" y="0" text-anchor="end" dominant-baseline="central">T</text><g transform="rotate(0,0,0) translate(-27,-50) translate(13,142) rotate(-90,0,0)"><text fill="" stroke="none" font-family="Times New Roman" font-size="10pt" font-style="italic" font-weight="normal" text-decoration="normal" x="0" y="0" text-anchor="middle" dominant-baseline="alphabetic">query</text><g transform="rotate(90,0,0) translate(-13,-142)"/></g></g></g></g></g></g></g></g></g></g><g fill="#444444"><path fill="" stroke="none" d=""/><g transform="translate(37.760000000000005,10)"><path fill="none" stroke="none"/><text fill="" stroke="none" font-family="Times New Roman" font-size="10pt" font-style="normal" font-weight="bold" text-decoration="normal" x="0" y="0" text-anchor="start" dominant-baseline="text-before-edge">Figure 1</text></g></g></g></g></g></svg>