<svg version="1.1" xmlns="http://www.w3.org/2000/svg" xmlns:xlink="http://www.w3.org/1999/xlink" width="300" height="300" style="width: 300px; height: 300px;"><defs/><g><g/><g transform="scale(1,1) translate(0.5,0.5)"><rect fill="#FFFFFF" stroke="none" x="0" y="0" width="300" height="300"/><rect fill="#ffffff" stroke="none" x="0" y="0" width="300" height="300"/><rect fill="#FFFFFF" stroke="none" x="5" y="29.19999999999999" width="290" height="265.8"/><rect fill="#ffffff" stroke="none" x="5" y="29.19999999999999" width="290" height="265.8"/><g><rect fill="none" stroke="#e5e5e5" x="5" y="29.19999999999999" width="290" height="265.8" stroke-miterlimit="10"/></g><g><g/><g/><g><path fill="none" stroke="none"/><path fill="#c6c6c6" stroke="none" paint-order="stroke fill markers" d=" M -24 215.26 L 63 215.26 L 121 162.1 L 121 2.6200000000000045 L -24 2.6200000000000045 Z" fill-opacity="0.5"/><path fill="#c6c6c6" stroke="none" paint-order="stroke fill markers" d=" M 63 321.58 L 63 215.26 L 121 162.1 L 324 162.1 L 324 321.58 Z" fill-opacity="0.5"/><path fill="#c6c6c6" stroke="none" paint-order="stroke fill markers" d=" M -24 82.35999999999999 L 179 82.35999999999999 L 179 82.35999999999999 L 179 2.6200000000000045 L -24 2.6200000000000045 Z" fill-opacity="0.5"/><path fill="#c6c6c6" stroke="none" paint-order="stroke fill markers" d=" M 179 321.58 L 179 82.35999999999999 L 179 82.35999999999999 L 324 82.35999999999999 L 324 321.58 Z" fill-opacity="0.5"/><path fill="#c6c6c6" stroke="none" paint-order="stroke fill markers" d="" fill-opacity="0.5"/><path fill="none" stroke="#acacac" paint-order="fill stroke markers" d=" M -24 215.26 L 63 215.26 L 121 162.1 L 121 2.6200000000000045 L -24 2.6200000000000045 Z" stroke-miterlimit="10" stroke-width="2" stroke-dasharray="2,2"/><path fill="none" stroke="#acacac" paint-order="fill stroke markers" d=" M 63 321.58 L 63 215.26 L 121 162.1 L 324 162.1 L 324 321.58 Z" stroke-miterlimit="10" stroke-width="2" stroke-dasharray="2,2"/><path fill="none" stroke="#acacac" paint-order="fill stroke markers" d=" M -24 82.35999999999999 L 179 82.35999999999999 L 179 82.35999999999999 L 179 2.6200000000000045 L -24 2.6200000000000045 Z" stroke-miterlimit="10" stroke-width="2" stroke-dasharray="2,2"/><path fill="none" stroke="#acacac" paint-order="fill stroke markers" d=" M 179 321.58 L 179 82.35999999999999 L 179 82.35999999999999 L 324 82.35999999999999 L 324 321.58 Z" stroke-miterlimit="10" stroke-width="2" stroke-dasharray="2,2"/><path fill="none" stroke="#acacac" paint-order="fill stroke markers" d="" stroke-miterlimit="10" stroke-width="2" stroke-dasharray="2,2"/></g><g><path fill="none" stroke="none"/><path fill="none" stroke="black" paint-order="fill stroke markers" d=" M 63 215.26 L 121 162.1" stroke-miterlimit="10" stroke-width="5"/><path fill="none" stroke="none"/><path fill="none" stroke="black" paint-order="fill stroke markers" d=" M 150 268.42 L 237 188.68" stroke-miterlimit="10" stroke-width="5"/><path fill="none" stroke="none"/><path fill="none" stroke="black" paint-order="fill stroke markers" d=" M 179 82.35999999999999 L 179 82.35999999999999" stroke-miterlimit="10" stroke-width="5"/><path fill="none" stroke="none"/></g><g stroke="black" stroke-miterlimit="10" stroke-width="3"><path fill="none" stroke="none"/><path fill="none" stroke="" d=""/><g transform="translate(179,82.35999999999999)"><path fill="none" stroke="" paint-order="fill stroke markers" d=" M -5 5 L 5 -5 M -5 -5 L 5 5"/><g transform="translate(-179,-82.35999999999999)"/></g></g></g><g><g/><g stroke="black" stroke-miterlimit="10" stroke-width="3"><path fill="#ffffff" stroke="#e5e5e5" paint-order="fill stroke markers" d=" M 15 39.19999999999999 L 136 39.19999999999999 L 136 125.19999999999999 L 15 125.19999999999999 L 15 39.19999999999999 Z" fill-opacity="0.95" stroke-miterlimit="10" stroke-opacity="0.5"/><text fill="#444444" stroke="none" font-family="helvetica" font-size="10pt" font-style="normal" font-weight="normal" text-decoration="normal" x="50" y="59.19999999999999" text-anchor="start" dominant-baseline="central">seed-shadow</text><rect fill="#c6c6c6" stroke="none" x="27" y="51.19999999999999" width="16" height="16" fill-opacity="0.5"/><path fill="none" stroke="#acacac" paint-order="fill stroke markers" d=" M 27 51.19999999999999 L 43 51.19999999999999 L 43 67.19999999999999 L 27 67.19999999999999 L 27 51.19999999999999 Z" stroke-miterlimit="10" stroke-width="2" stroke-dasharray="2,2"/><text fill="#444444" stroke="none" font-family="helvetica" font-size="10pt" font-style="normal" font-weight="normal" text-decoration="normal" x="50" y="82.19999999999999" text-anchor="start" dominant-baseline="central">seed</text><g><path fill="none" stroke="black" paint-order="fill stroke markers" d=" M 25 82.19999999999999 L 45 82.19999999999999" stroke-miterlimit="10" stroke-width="5"/></g><text fill="#444444" stroke="none" font-family="helvetica" font-size="10pt" font-style="normal" font-weight="normal" text-decoration="normal" x="50" y="105.19999999999999" text-anchor="start" dominant-baseline="central">P</text><path fill="none" stroke="" d=""/><g transform="translate(35,105.19999999999999)"><path fill="none" stroke="" paint-order="fill stroke markers" d=" M -4 4 L 4 -4 M -4 -4 L 4 4"/><g transform="translate(-35,-105.19999999999999)"/></g></g><g><g transform="translate(150,162.1) rotate(90,0,0)"><path fill="none" stroke="black" paint-order="fill stroke markers" d=" M 12.5 25 L 0 0 L -12.5 25" stroke-miterlimit="10"/></g><path fill="none" stroke="none"/><g transform="translate(150,162.1) rotate(90,0,0)"><path fill="none" stroke="none"/></g></g></g></g></g></svg>