<svg version="1.1" xmlns="http://www.w3.org/2000/svg" xmlns:xlink="http://www.w3.org/1999/xlink" width="300" height="300" style="width: 300px; height: 300px;"><defs/><g><g/><g transform="scale(1,1) translate(0.5,0.5)"><rect fill="#FFFFFF" stroke="none" x="0" y="0" width="300" height="300"/><rect fill="#ffffff" stroke="none" x="0" y="0" width="300" height="300"/><rect fill="#FFFFFF" stroke="none" x="5" y="26" width="290" height="269"/><rect fill="#ffffff" stroke="none" x="5" y="26" width="290" height="269"/><g><rect fill="none" stroke="#e5e5e5" x="5" y="26" width="290" height="269" stroke-miterlimit="10"/></g><g><g/><g/><g><path fill="none" stroke="none"/><path fill="#c6c6c6" stroke="none" paint-order="stroke fill markers" d=" M 5 214.3 L 63 214.3 L 121 160.5 L 121 26 L 5 26 Z" fill-opacity="0.5"/><path fill="#c6c6c6" stroke="none" paint-order="stroke fill markers" d=" M 63 295 L 63 214.3 L 121 160.5 L 295 160.5 L 295 295 Z" fill-opacity="0.5"/><path fill="#c6c6c6" stroke="none" paint-order="stroke fill markers" d=" M 5 79.80000000000001 L 179 79.80000000000001 L 179 79.80000000000001 L 179 26 L 5 26 Z" fill-opacity="0.5"/><path fill="#c6c6c6" stroke="none" paint-order="stroke fill markers" d=" M 179 295 L 179 79.80000000000001 L 179 79.80000000000001 L 295 79.80000000000001 L 295 295 Z" fill-opacity="0.5"/><path fill="#c6c6c6" stroke="none" paint-order="stroke fill markers" d="" fill-opacity="0.5"/></g><g><path fill="none" stroke="none"/><path fill="none" stroke="black" paint-order="fill stroke markers" d=" M 63 214.3 L 121 160.5" stroke-miterlimit="10" stroke-width="5"/><path fill="none" stroke="none"/><path fill="none" stroke="black" paint-order="fill stroke markers" d=" M 150 268.1 L 237 187.4" stroke-miterlimit="10" stroke-width="5"/><path fill="none" stroke="none"/><path fill="none" stroke="black" paint-order="fill stroke markers" d=" M 179 79.80000000000001 L 179 79.80000000000001" stroke-miterlimit="10" stroke-width="5"/><path fill="none" stroke="none"/></g><g><path fill="none" stroke="none"/><path fill="none" stroke="black" paint-order="fill stroke markers" d=" M 121 295 L 179 241.2 L 179 79.80000000000001 L 237 26" stroke-miterlimit="10" stroke-width="2" stroke-dasharray="2,2"/></g><g stroke="black" stroke-miterlimit="10" stroke-width="3"><path fill="none" stroke="none"/><path fill="none" stroke="" d=""/><g transform="translate(179,79.80000000000001)"><path fill="none" stroke="" paint-order="fill stroke markers" d=" M -5 5 L 5 -5 M -5 -5 L 5 5"/><g transform="translate(-179,-79.80000000000001)"/></g></g></g><g><g/><g><path fill="#ffffff" stroke="#e5e5e5" paint-order="fill stroke markers" d=" M 15 36 L 131 36 L 131 122 L 15 122 L 15 36 Z" fill-opacity="0.95" stroke-miterlimit="10" stroke-opacity="0.5"/><text fill="#444444" stroke="none" font-family="Times New Roman" font-size="10pt" font-style="normal" font-weight="normal" text-decoration="normal" x="50" y="56" text-anchor="start" dominant-baseline="text-after-edge">seed-shadow</text><rect fill="#c6c6c6" stroke="none" x="27" y="48" width="16" height="16" fill-opacity="0.5"/><text fill="#444444" stroke="none" font-family="Times New Roman" font-size="10pt" font-style="normal" font-weight="normal" text-decoration="normal" x="50" y="79" text-anchor="start" dominant-baseline="text-after-edge">seed</text><g><path fill="none" stroke="black" paint-order="fill stroke markers" d=" M 25 79 L 45 79" stroke-miterlimit="10" stroke-width="5"/></g><text fill="#444444" stroke="none" font-family="Times New Roman" font-size="10pt" font-style="normal" font-weight="normal" text-decoration="normal" x="50" y="102" text-anchor="start" dominant-baseline="text-after-edge">path</text><g><path fill="none" stroke="black" paint-order="fill stroke markers" d=" M 25 102 L 45 102" stroke-miterlimit="10" stroke-width="2" stroke-dasharray="2,2"/></g></g><g fill="black"><path fill="" stroke="none" d=""/><g transform="translate(187.7,93.25)"><path fill="none" stroke="none"/><text fill="" stroke="none" font-family="Times New Roman" font-size="12pt" font-style="normal" font-weight="normal" text-decoration="normal" x="0" y="0" text-anchor="start" dominant-baseline="text-after-edge">P</text></g></g></g><g><g fill="#444444"><path fill="" stroke="none" d=""/><g transform="translate(5,10)"><path fill="none" stroke="none"/><text fill="" stroke="none" font-family="Times New Roman" font-size="10pt" font-style="normal" font-weight="bold" text-decoration="normal" x="0" y="0" text-anchor="start" dominant-baseline="text-before-edge">Figure 2</text></g></g></g></g></g></svg>